<?xml version="1.0" standalone="no"?>
<!DOCTYPE svg PUBLIC "-//W3C//DTD SVG 20010904//EN"
 "http://www.w3.org/TR/2001/REC-SVG-20010904/DTD/svg10.dtd">
<svg version="1.0" xmlns="http://www.w3.org/2000/svg"
 width="512.000000pt" height="512.000000pt" viewBox="0 0 512.000000 512.000000"
 preserveAspectRatio="xMidYMid meet">
<metadata>
Created by potrace 1.11, written by Peter Selinger 2001-2013
</metadata>
<g transform="translate(0.000000,512.000000) scale(0.100000,-0.100000)"
fill="#000000" stroke="none">
<path d="M894 4457 c-26 -23 -27 -28 -28 -128 -3 -167 10 -178 196 -178 67 1
133 -4 155 -11 76 -25 142 -86 170 -160 17 -42 18 -132 18 -1425 l0 -1380 -28
-57 c-59 -121 -139 -158 -336 -158 -124 0 -128 -1 -152 -26 -22 -23 -24 -34
-24 -127 -1 -114 6 -146 36 -165 29 -19 3096 -20 3140 -2 48 20 63 58 84 220
3 25 17 119 31 210 13 91 32 212 40 270 9 58 17 116 19 130 2 14 13 86 25 160
l21 135 -22 18 c-30 24 -221 23 -242 -2 -8 -9 -48 -126 -90 -260 -48 -153 -88
-264 -109 -298 -68 -113 -193 -208 -323 -244 -40 -11 -165 -14 -630 -14 l-580
0 -54 30 c-56 31 -106 88 -128 148 -8 23 -12 198 -12 628 l-1 595 398 -1 c434
-2 436 -3 525 -64 94 -65 138 -153 145 -293 3 -69 9 -101 19 -110 15 -12 185
-19 201 -9 26 17 28 80 27 708 0 510 -4 666 -13 675 -8 8 -47 13 -102 14 -126
3 -127 2 -132 -151 -4 -104 -8 -128 -31 -179 -35 -75 -111 -148 -185 -177 -55
-22 -69 -23 -454 -24 l-398 -2 0 26 c-1 14 -1 279 -1 588 -1 421 2 571 11 600
29 87 102 156 188 178 69 17 1082 14 1137 -4 155 -49 269 -159 311 -300 13
-42 17 -102 19 -240 1 -159 4 -185 18 -196 11 -8 54 -13 118 -13 125 0 138 9
140 96 1 31 3 66 4 77 1 11 5 58 9 105 4 47 9 108 11 135 7 80 13 154 20 250
3 50 8 104 10 120 2 17 7 73 10 125 5 84 3 99 -15 128 -11 18 -32 37 -46 42
-16 6 -587 10 -1559 10 l-1534 0 -27 -23z"/>
</g>
</svg>
