<svg version="1.0" xmlns="http://www.w3.org/2000/svg" width="682.667" height="682.667" viewBox="0 0 512 512"><path d="M89.4 66.3c-2.6 2.3-2.7 2.8-2.8 12.8-.3 16.7 1 17.8 19.6 17.8 6.7-.1 13.3.4 15.5 1.1 7.6 2.5 14.2 8.6 17 16 1.7 4.2 1.8 13.2 1.8 142.5v138l-2.8 5.7c-5.9 12.1-13.9 15.8-33.6 15.8-12.4 0-12.8.1-15.2 2.6-2.2 2.3-2.4 3.4-2.4 12.7-.1 11.4.6 14.6 3.6 16.5 2.9 1.9 309.6 2 314 .2 4.8-2 6.3-5.8 8.4-22 .3-2.5 1.7-11.9 3.1-21 1.3-9.1 3.2-21.2 4-27 .9-5.8 1.7-11.6 1.9-13 .2-1.4 1.3-8.6 2.5-16l2.1-13.5-2.2-1.8c-3-2.4-22.1-2.3-24.2.2-.8.9-4.8 12.6-9 26-4.8 15.3-8.8 26.4-10.9 29.8-6.8 11.3-19.3 20.8-32.3 24.4-4 1.1-16.5 1.4-63 1.4h-58l-5.4-3c-5.6-3.1-10.6-8.8-12.8-14.8-.8-2.3-1.2-19.8-1.2-62.8l-.1-59.5 39.8.1c43.4.2 43.6.3 52.5 6.4 9.4 6.5 13.8 15.3 14.5 29.3.3 6.9.9 10.1 1.9 11 1.5 1.2 18.5 1.9 20.1.9 2.6-1.7 2.8-8 2.7-70.8 0-51-.4-66.6-1.3-67.5-.8-.8-4.7-1.3-10.2-1.4-12.6-.3-12.7-.2-13.2 15.1-.4 10.4-.8 12.8-3.1 17.9-3.5 7.5-11.1 14.8-18.5 17.7-5.5 2.2-6.9 2.3-45.4 2.4l-39.8.2v-2.6c-.1-1.4-.1-27.9-.1-58.8-.1-42.1.2-57.1 1.1-60 2.9-8.7 10.2-15.6 18.8-17.8 6.9-1.7 108.2-1.4 113.7.4 15.5 4.9 26.9 15.9 31.1 30 1.3 4.2 1.7 10.2 1.9 24 .1 15.9.4 18.5 1.8 19.6 1.1.8 5.4 1.3 11.8 1.3 12.5 0 13.8-.9 14-9.6.1-3.1.3-6.6.4-7.7.1-1.1.5-5.8.9-10.5s.9-10.8 1.1-13.5c.7-8 1.3-15.4 2-25 .3-5 .8-10.4 1-12 .2-1.7.7-7.3 1-12.5.5-8.4.3-9.9-1.5-12.8-1.1-1.8-3.2-3.7-4.6-4.2-1.6-.6-58.7-1-155.9-1H92.1l-2.7 2.3z"/></svg>